#!OML:ASF H:\Terrain\Patient Classification 1\Terrain2\Thursday\justin.ASF
:FULLY-SPECIFIED
:DEGREES
2198
root -7.57269 17.667 22.0261 1590.4 -86.0116 208.426
lowerback 5.8923 0.0718574 -0.0822003
upperback 2.72158 0.0258379 3.26909
thorax -0.502336 -0.048047 3.41281
lowerneck -12.9546 -2.69538 -11.3011
upperneck 36.6162 -5.06792 7.01506
head 15.5107 -3.31668 4.01251
rclavicle 3.47873e-015 -9.54166e-015
rhumerus -30.7159 -7.84289 -79.6735
rradius 37.9871
rwrist -15.4934
rhand -23.5172 10.4911
rfingers 7.12502
rthumb 2.9436 -19.4684
lclavicle 3.47873e-015 -9.54166e-015
lhumerus -28.8637 5.68311 82.7878
lradius 41.7447
lwrist 8.99611
lhand -21.4173 22.3027
lfingers 7.12502
lthumb 4.97139 52.2244
rfemur -18.4746 -13.2102 25.1506
rtibia 46.6371
rfoot -14.7702 -12.2634
rtoes 10.6075
lfemur -15.2126 -1.54615 -15.7788
ltibia 27.6112
lfoot -5.4879 -17.7156
ltoes 15.4509
2199
root -7.63709 17.6503 22.0279 1590.2 -85.7745 208.508
lowerback 5.84927 0.149236 0.399164
upperback 2.78334 0.149867 3.10557
thorax -0.420994 0.0178075 2.96337
lowerneck -12.7569 -2.77382 -11.2276
upperneck 36.4285 -5.30604 7.24722
head 15.4064 -3.37481 4.05476
rclavicle -9.93923e-016 -9.54166e-015
rhumerus -30.8419 -8.23379 -79.8192
rradius 38.3237
rwrist -15.334
rhand -23.2743 10.1698
rfingers 7.12502
rthumb 3.17818 -19.7863
lclavicle -9.93923e-016 -9.54166e-015
lhumerus -28.3791 5.10563 82.5186
lradius 42.0188
lwrist 9.22115
lhand -21.1599 22.8364
lfingers 7.12502
lthumb 5.22 52.7522
rfemur -18.201 -13.9822 25.5428
rtibia 45.3301
rfoot -15.2039 -13.8465
rtoes 12.336
lfemur -15.0511 -1.50404 -15.6556
ltibia 28.1537
lfoot -5.95943 -17.5019
ltoes 16.578
2200
root -7.69789 17.6339 22.024 1597.64 -85.7025 201.037
lowerback 5.79165 0.268776 0.102061
upperback 2.72402 0.301394 2.8262
thorax -0.457971 0.0976499 2.83238
lowerneck -12.3614 -2.83648 -10.6869
upperneck 36.1574 -5.49805 7.01414
head 15.1749 -3.41185 3.81651
rclavicle -5.76476e-015 3.4191e-014
rhumerus -30.9787 -8.51944 -79.9836
rradius 38.4387
rwrist -15.0458
rhand -23.0341 9.65225
rfingers 7.12502
rthumb 3.41015 -20.3002
lclavicle -5.76476e-015 3.4191e-014
lhumerus -28.0342 4.67181 82.2519
lradius 42.1662
lwrist 9.50399
lhand -21.2603 22.8234
lfingers 7.12502
lthumb 5.12306 52.7415
rfemur -18.1591 -14.6119 25.3319
rtibia 44.3091
rfoot -15.2689 -14.9525
rtoes 18.4681
lfemur -14.9909 -1.32157 -16.1725
ltibia 28.6252
lfoot -6.48848 -17.336
ltoes 17.0787
2201
root -7.75717 17.6237 22.005 1603.94 -85.3522 194.824
lowerback 5.54913 0.398163 -0.330556
upperback 2.67394 0.455871 2.69753
thorax -0.384593 0.175266 2.93443
lowerneck -12.257 -2.83106 -10.4776
upperneck 36.1463 -5.55358 6.96538
head 15.1412 -3.41818 3.74822
rclavicle -1.16289e-014 5.56597e-015
rhumerus -30.958 -8.29963 -80.2708
rradius 38.3303
rwrist -15.1026
rhand -23.4208 9.70701
rfingers 7.12502
rthumb 3.03671 -20.2511
lclavicle -1.16289e-014 5.56597e-015
lhumerus -27.6619 4.37184 82.0403
lradius 42.2067
lwrist 9.80201
lhand -21.5056 22.5714
lfingers 7.12502
lthumb 4.88613 52.4951
rfemur -18.2015 -14.7652 25.3582
rtibia 43.5333
rfoot -15.7411 -15.6722
rtoes 14.9195
lfemur -15.0522 -0.91959 -16.49
ltibia 29.0983
lfoot -7.05196 -17.2401
ltoes 16.9607
2202
root -7.81422 17.615 21.9904 1605.5 -84.8345 193.361
lowerback 5.31897 0.536262 -0.257029
upperback 2.63811 0.644016 2.65018
thorax -0.302252 0.271214 2.83413
lowerneck -12.3968 -2.81477 -10.7452
upperneck 36.4127 -5.59297 7.2613
head 15.3303 -3.44552 3.92457
rclavicle 2.38542e-015 1.90833e-014
rhumerus -30.9106 -8.02009 -80.6074
rradius 38.2352
rwrist -15.3466
rhand -23.8607 9.84212
rfingers 7.12502
rthumb 2.61188 -20.1216
lclavicle 2.38542e-015 1.90833e-014
lhumerus -27.3302 4.03294 81.8843
lradius 42.3625
lwrist 9.9342
lhand -21.5635 22.4738
lfingers 7.12502
lthumb 4.83029 52.3987
rfemur -18.1716 -15.3913 25.7653
rtibia 42.964
rfoot -16.4466 -16.1666
rtoes 13.8532
lfemur -15.1489 -0.331642 -16.4199
ltibia 29.6558
lfoot -7.53479 -17.2739
ltoes 16.2773
2203
root -7.87266 17.5951 21.9882 1607.28 -84.4189 191.697
lowerback 5.10025 0.613177 -0.186747
upperback 2.55982 0.751849 2.64247
thorax -0.265584 0.327484 2.78177
lowerneck -12.4895 -2.72407 -11.2227
upperneck 36.6584 -5.48192 7.61664
head 15.4899 -3.43226 4.19241
rclavicle -6.26172e-015 1.35174e-014
rhumerus -30.9154 -7.75191 -80.7529
rradius 38.1834
rwrist -15.308
rhand -23.8588 9.93717
rfingers 7.12502
rthumb 2.61369 -20.0266
lclavicle -6.26172e-015 1.35174e-014
lhumerus -27.1429 4.12227 81.8167
lradius 42.5214
lwrist 9.703
lhand -21.5849 22.3639
lfingers 7.12502
lthumb 4.80961 52.2894
rfemur -18.0048 -16.7233 26.0742
rtibia 42.5447
rfoot -16.9952 -16.2835
rtoes 13.741
lfemur -15.1216 0.0260165 -16.4643
ltibia 29.9087
lfoot -7.68281 -17.2398
ltoes 15.647
